/* XPM */
static char *_95d52df7d5b432ec40bc7919f106e7a0hRL3IxVtOYQFFQ3[] = {
/* columns rows colors chars-per-pixel */
"64 64 48 1 ",
"  c None",
". c #F24500",
"X c #FA5D0F",
"o c #F87432",
"O c #F07544",
"+ c #F78B56",
"@ c #ED9C7B",
"# c #F4B595",
"$ c #F2CCB8",
"% c #F2D0BF",
"& c #E9CDC2",
"* c #F2D1C1",
"= c #F2D5C7",
"- c #F2D7CA",
"; c #F1DACE",
": c #F2DACE",
"> c #E7DDD8",
", c #E7DFDB",
"< c #E6DFDC",
"1 c #F1DDD3",
"2 c #F1DED5",
"3 c #E6E0DE",
"4 c #E6E1DF",
"5 c #F1E0D8",
"6 c #F1E1D9",
"7 c #F1E2DA",
"8 c #F1E3DC",
"9 c #F1E3DD",
"0 c #F1E4DD",
"q c #F1E4DE",
"w c #E6E2E0",
"e c #E5E3E2",
"r c #E5E3E3",
"t c #E6E3E2",
"y c #E5E4E3",
"u c #E4E4E4",
"i c #E5E4E4",
"p c gray91",
"a c #F1E7E2",
"s c #F0E9E5",
"d c #F0EBE8",
"f c #F0ECEA",
"g c #F0EDEB",
"h c #F0EDEC",
"j c #F0EEEC",
"k c #F0EEED",
"l c #F0EFEE",
"z c gray94",
/* pixels */
"                                                                ",
"                                                                ",
"                                                                ",
"                                                                ",
"                                                                ",
"                                                                ",
"                                                                ",
"                                pppppppppppppppppppppppppppppppp",
"zzzzzzzzzzzzzzzzzzzzzzzzzzzzzzzziiuuuuuuuuuuuuuuuuuuuuuuiuuuuuuu",
"zzzzzzzzzzzzzzzzzzzzzzzzzzzzzzzziiuuuuuuuuuuuuuuuuuuuuuuuuuuuuuu",
"zzzzzzzzzzzzzzzzzzzzzzzzzzzzzzzzuuuuuuuuuuuuuuuuuueuuuuuuuuuuuuu",
"zzz-++++++hzz;++++++++++++++++0zuy@@@@@@@@@@@@@@@@euuu@@@@@@4uuu",
"zzz$XXXXXXfzz%XXXXXXXXXXXXXXXX2zue................>uuu......>uuu",
"zzz$XXXXXXfzz%XXXXXXXXXXXXXXXX2zue................4uuu......>uuu",
"zzz$XXXXXXfzz%XXXXXXXXXXXXXXXX2zue................>iuu......>uuu",
"zzz$XXXXXXfzz%XXXXXXXXXXXXXXXX2zue................4uuu......>uuu",
"zzz$XXXXXXfzz*XXXXXXXXXXXXXXXX2zue................>iuu......>uuu",
"zzz$XXXXXXfzz%XXXXXXXXXXXXXXXX2zue................4uuu......>uuu",
"zzz*oooooofzz=oooooooooooooooo7zueOOOOOOOOOOOOOOOO4euuOOOOOO<uuu",
"zzzzzzzzzzzzzzzzzzzzzzzzzzzzzzzzuuuuuuuuuuuuuuuuuuuuuuuuuuuuuuuu",
"zzzzzzzzzzzzzzzzzzzzzzzzzzzzzzzzuuuuuuuuuuuuuuuuuuuuuuuuuuuuuuuu",
"zzzzzzzzzzzzzzzzzzzzzzzzzzzzzzzzuuuuuuuuuuuuuuuuuuuuuuuuuuuuuuuu",
"zzz7################szza########&&&&&&&&iuuu&&&&&&&&&&&&&&&&yuuu",
"zzz$XXXXXXXXXXXXXXXX0zz;XXXXXXXX........euuy................>uuu",
"zzz$XXXXXXXXXXXXXXXX7zz;XXXXXXXX........4yuy................>uuu",
"zzz$XXXXXXXXXXXXXXXX0zz;XXXXXXXX........euuy................>uuu",
"zzz$XXXXXXXXXXXXXXXX0zz:XXXXXXXX........4yuy................>uuu",
"zzz$XXXXXXXXXXXXXXXX0zz:XXXXXXXX........euuy................>uuu",
"zzz$XXXXXXXXXXXXXXXX0zz:XXXXXXXX........4yuy................>uuu",
"zzz$XXXXXXXXXXXXXXXX8zz:XXXXXXXX........euuy................>uuu",
"zzzf2222222222222222hzzh22222222eeeeeeeeuuuueeeeeeeeeeeeeeeeuuuu",
"zzzzzzzzzzzzzzzzzzzzzzzzzzzzzzzzuuuuuuuuuuuuuuuuuuuuuuuuuuuuuuuu",
"zzzzzzzzzzzzzzzzzzzzzzzzzzzzzzzzuuuuuuuuuuuuuuuuuuuuuuuuuuuuuuuu",
"zzzf222222zzzf2222222222222222hzuueeeeeeeeeeeeeeeeuuuueeeeeeuuuu",
"zzz$XXXXXXfzz%XXXXXXXXXXXXXXXX2zue................>uuu......>uuu",
"zzz$XXXXXXfzz%XXXXXXXXXXXXXXXX2zue................4uuu......>uuu",
"zzz$XXXXXXfzz%XXXXXXXXXXXXXXXX2zue................4yuu......>uuu",
"zzz$XXXXXXfzz*XXXXXXXXXXXXXXXX2zue................>uuu......>uuu",
"zzz$XXXXXXfzz*XXXXXXXXXXXXXXXX2zue................>iuu......>uuu",
"zzz$XXXXXXfzh*XXXXXXXXXXXXXXXX2zue................4yuu......>uuu",
"zzz$XXXXXXfzz*XXXXXXXXXXXXXXXX2zue................>uuu......>uuu",
"zzz7######hzz8################szuu&&&&&&&&&&&&&&&&iuuu&&&&&&yuuu",
"zzzzzzzzzzzzzzzzzzzzzzzzzzzzzzzzuuuuuuuuuuuuuuuuuuuuuuuuuuuuuuuu",
"zzzzzzzzzzzzzzzzzzzzzzzzzzzzzzzzuuuuuuuuuuuuuuuuuuuuuuuuuuuuuuuu",
"zzzzzzzzzzzzzzzzzzzzzzzzzzzzzzzzuuuuuuuuuuiiiuuuuuuuuuuuuuuuuuuu",
"zzz*oooooooooooooooo0zz2ooooooooOOOOOOOOeuiyOOOOOOOOOOOOOOOO<uuu",
"zzz$XXXXXXXXXXXXXXXX8zz:XXXXXXXX........euui................>uuu",
"zzz$XXXXXXXXXXXXXXXX8zz:XXXXXXXX........4uue................>uuu",
"zzz$XXXXXXXXXXXXXXXX0zz:XXXXXXXX........euuy................>uuu",
"zzz$XXXXXXXXXXXXXXXX8zz;XXXXXXXX........4uuy................>uuu",
"zzz$XXXXXXXXXXXXXXXX8zz;XXXXXXXX........4iuy................>uuu",
"zzz$XXXXXXXXXXXXXXXX8zz;XXXXXXXX........euuy................>uuu",
"zzz-++++++++++++++++azh7++++++++@@@@@@@@euui@@@@@@@@@@@@@@@@euuu",
"zzzzzzzzzzzzzzzzzzzzzzzzzzzzzzzzuuuuuuuuyuuuuuuuuuuuuuuuuuuuyuuu",
"zzzzzzzzzzzzzzzzzzzzzzzzzzzzzzzzuuuuuuuuuuuuuuuuuuuuuuuuuuuuuuuu",
"zzzzzzzzzzzzzzzzzzzzzzzzzzzzzzzzuuuuuuuuuuuuuuuiuuuuuuuuuuuuuuuu",
"                                pppppppppppppppppppppppppppppppp",
"                                                                ",
"                                                                ",
"                                                                ",
"                                                                ",
"                                                                ",
"                                                                ",
"                                                                "
};
