/* XPM */
static char *b9ddca437c2a49c0a7fb41e72a53f735GS2VKpBbRPUITh7Q[] = {
/* columns rows colors chars-per-pixel */
"64 64 2 1 ",
"  c None",
". c black",
/* pixels */
"                                                                ",
"                                                                ",
"                                                                ",
"                                                                ",
"                                                                ",
"                                                                ",
"                                                                ",
"                                                                ",
".......     ..................    ..................     .......",
"........   ...................    ...................   ........",
"........   ...................    ...................   ........",
"........   ...................    ...................   ........",
"........   ...................    ...................   ........",
"........   ...................    ...................   ........",
"........   ...................    ...................   ........",
"........   ...................    ...................   ........",
"........   ...................    ...................   ........",
"                                                                ",
"                                                                ",
"                                                                ",
"                                                                ",
"...................    ..................    ...................",
"...................    ..................    ...................",
"...................    ..................    ...................",
"...................    ..................    ...................",
"...................    ..................    ...................",
"...................    ..................    ...................",
"...................    ..................    ...................",
"...................    ..................    ...................",
"...................    ..................    ...................",
"                                                                ",
"                                                                ",
"                                                                ",
"                                                                ",
"........   ...................    ...................   ........",
"........   ...................    ...................   ........",
"........   ...................    ...................   ........",
"........   ...................    ...................   ........",
"........   ...................    ...................   ........",
"........   ...................    ...................   ........",
"........   ...................    ...................   ........",
"........   ...................    ...................   ........",
".......    ...................    ...................    .......",
"                                                                ",
"                                                                ",
"                                                                ",
"                                                                ",
"...................    ..................    ...................",
"...................    ..................    ...................",
"...................    ..................    ...................",
"...................    ..................    ...................",
"...................    ..................    ...................",
"...................    ..................    ...................",
"...................    ..................    ...................",
"...................    ..................    ...................",
"..................     ..................     ..................",
"                                                                ",
"                                                                ",
"                                                                ",
"                                                                ",
"                                                                ",
"                                                                ",
"                                                                ",
"                                                                "
};
