/* XPM */
static char *c5c6c3afe9d74176bd39dad9ffb51ba3RfPjqJv0FzAKHkie[] = {
/* columns rows colors chars-per-pixel */
"64 64 74 1 ",
"  c #010101",
". c #080707",
"X c #090807",
"o c #0C0A09",
"O c #110E0D",
"+ c #14110F",
"@ c #161211",
"# c #1B1615",
"$ c #1C1817",
"% c #1F1B19",
"& c #221D1B",
"* c #26211E",
"= c #28211F",
"- c #272120",
"; c #2B2322",
": c #2F2825",
"> c #312927",
", c #342C29",
"< c #382F2C",
"1 c #3B312E",
"2 c #3D3330",
"3 c #413632",
"4 c #443A36",
"5 c #4B3F3B",
"6 c #4D413D",
"7 c #50433F",
"8 c #544743",
"9 c #554944",
"0 c #594B46",
"q c #5D4D49",
"w c #5F504B",
"e c #604F4A",
"r c #61514B",
"t c #62524D",
"y c #62534D",
"u c #63524E",
"i c #64544E",
"p c #665651",
"a c #685751",
"s c #685852",
"d c #6B5953",
"f c #6C5B55",
"g c #6C5C55",
"h c #6F5F58",
"j c #705D57",
"k c #725F5A",
"l c #716059",
"z c #73615A",
"x c #73625C",
"c c #75625C",
"v c #78655F",
"b c #78665F",
"n c #7D6962",
"m c #7E6A63",
"M c #7E6A64",
"N c #806B64",
"B c #806B65",
"V c #826D67",
"C c #836E67",
"Z c #857068",
"A c #88726B",
"S c #88736B",
"D c #8A756D",
"F c #8C766E",
"G c #8D786F",
"H c #947D75",
"J c #9B8379",
"K c #9A827A",
"L c #9B827A",
"P c #9B837B",
"I c #9F877E",
"U c #A0867E",
"Y c #A1887F",
"T c #A18880",
/* pixels */
"               . . . .. ..   X  X  X  X  .                      ",
" *4444444444@ +@@@@@+++@++ @223323223323 X@@@@@@@@@@@@ &111111& ",
" sVVCCCCVCCC2oYYYYYYYYYYYY.3CCCCVCCCCCCCo%YYYYYYYYTTYU gVVCCVVq ",
" sVVCCCCVVCC2oYYYYYYYYYYYY.1CCCCVCCCCCCCo%YYTYYYYYYYTU jVVCCCV0 ",
" sCCCCCCCCCC2oYYYYYYYYYYYY.1VVCCCCCCCCCCo%IYYYYYYYYYYI gCCCCCCq ",
" aCCCCCCCCCC2oYYYYYYYYYYYY.2CCCCCCCCCCCCo%UYYYYYYYYYYY kCCCCCCq ",
" aVCCCCCCCCC2oYYYYYYYYYYYY.3CCCCCCCCCCCCo%YYYYYYYYYYYI gCCCCCVq ",
" pCCCCCCCCCZ2oYYYYYYYYYTYY 2CCCCCCCCCCCCo%YYYYYYYYYYYU gCCCCCV0 ",
"                                                                ",
" 3ccccO&wwwwqwttiit@ =----&&----; X,,,,,$=,,,,> wAZZZZvNVVVVVV6 ",
" kYYYY%2VCCCCCCCCCC*oYYYYYYYTTYYT &VCCCCCCVVVVm DTYYTYYYYYYYYYV ",
" kYYYY%2CCCCCCCCCCC&XUYYYYYYYYYYY &VCCCCCCCCVVM DTYYYYYYYYYYYYm ",
" kIYYY&2CCCCCCCCCCC&.YYYYYYYYYYYY &VCCCCCCVCCCm DYYYYYYYYYYYYYV ",
" kYYYY%1CCCCCCCCCVC&.YYYYYYYYYYYT &CCCCVCCVVCCm DYYYYYYYYYYYYYM ",
" kYYIU&1CCVCVVCCVVV&.YYYYYYYYYYYT &CCVVVCCCVCNN DYYYYYYYYYYYYYV ",
" 9HHHH@>vvvvckkkkzz# 555661466666 @665651466666 pGGGGGAFFFFFFD0 ",
"                                                                ",
" 0NVMNmmVVmN>*KKKKKKKKKKKK%>mmMMmmmMMMmVX0KPKKKPKKKKPH 0mmmmmm6 ",
" aVCCCVCCCCC2>YYUYYYYYUYYY&<VVVCVVCCVVCCopYYYYYYYYTTYU sVCCCCCq ",
" pVCCCCCCCCC2>YYYYYYYYYYYU*<VVVCCVCVVVCCopYYYYYYYYYYYU gVVCCCC0 ",
" aCCCCCCCCCC1>YYYYYYYYYYYY*1CCCCCCCCCCCCopIUYYYYYYYYYY sCCCCCCq ",
" aCCCCCCCCCC2>YYYYYYYYYYYY&1CCCCCCCCCCCCopYYYYYYYYYYYU gCCCVCCq ",
" aCCCCCCCCCC1>YYYYYYYYYYYY&1CCVCVVCCVVVVopYYYYYYYYYYYY sCCVVVVq ",
" >7777567777$@titttqwpipii+#777766898888X,ytiytwxvvvvg 1qqqqqq> ",
" .Xooo  oooXoXXXooX XXXoooXoXXXoX  oooooooooooo o+O+++ooooooooX ",
" kYYYY%2VVVVCCCCVVV*3YYYYYYYYYYYY@wYYYYYYYIUYUU zCCCCCCCVVCCVVp ",
" kYYYY%1CCVVCCCCCVV*4YYYYYYYYYYYY@rYYYYYYYYYYYY zCCCCCCCCCCCVVs ",
" kYYYT%2CCCCCCCCCVV*3YYYYYYYYYYYY@rYYYYYYYYYYYY zCCCCCCCCCCCVVs ",
" kYYYY%2CCCCCCCCCCC*3YYYYYYYYYYYY@wYYYYYYYYYYYU zCCCCCCCCCVVCCs ",
" kYYYY%2CCCCCCCVCCC*3YYYYYYYYYYYY+wYYYYYYYYYYYY zCCCCCCCCCVVCCs ",
" kUYYY&1CZVZCVVVCCC*4YYYYYYYYYYYY@rYYYYYYYYYYYU zCCCVVVVCCVVVVs ",
" &2334X@3333,>>>>>>o@333331133333X%333331233333 &>>>>>=:=>:;;>@ ",
" .@@@$o@====X O+OOO XOOOoO  oOOoO X+OOOO  +OOOOXOOOOOo &,,,,1,% ",
" 6YYYYYYYYYY:#VCCCZCCVVCVV.@YYYYYYYYIIII =CCCCCCVCCCCc VYYYYUYz ",
" 5YYYYYYYYYY;@CCCCCCCCCCVCX@YYYYYYYYYYYY &CCCCCCCCCCVz VYYYYYUk ",
" 6YYYYYYYYUI:%CCCCCCCCCCCCX@YYYYYYYYYYYY *CCCCCCCCCCVz NYYYYYIk ",
" 6YYYYYYYYYY:@VCCCCCCCCCCCX@YYYYYYYYYYYY *CCCCCVCCCCCz VYYYYYYk ",
" 5YYYYYYYYYY:#CCCCCCCCCCCC.@YYYYYYYYYYYY &CCCCCVCCCCCz NYYYYYYk ",
" 6YYYYYYYYYY:#CCCVCCCVVVVV.@YYYYYYYYYYYY *CCCCVVCCCCCc NYYYYYYk ",
"              XoXXX  .X.X.  oooXo                      ooooooo. ",
" 1pppp+o>,>>>>11111OO44446:,76776 X&&&%&+#&&&&% 4zhzzztzzzzzhz2 ",
" zYYYY*1CCVVVVCCCCC&>UYYYYIUYYYYY #VCCVVVVVVVVm ZYYYIYYYUTYYYYV ",
" cTYYY*,CCCCVCCCCCC&:YYYYYYYYYYYY #VCCCCCCVVVVm DYYYYYYYYYYYYYm ",
" xUTYY=<CCCCCCCCCCC&=YYYYYYYYYYYY #CCCCCCVVVVVm ZYYYYYYYYYYYYYM ",
" cYTYY=<CCCCCCVVVVV&:YYYYYYYYYYYY #VCCCCCCVCCCm DTTYYYYYYYYYYYV ",
" cYUYY=<VVCCCCCVVVV&=YYYYTYYYYYYY #VCCVVCCVVCCm ZTYYYUYYYYYUYYM ",
" pIKII%;gjjjdrttttt@&zzvzcgVZZCZS @zjjzgirqrrq0 zKPJKKKKKKKKKKg ",
"                                                                ",
" *ffffwpffffo 444442344444 osssss7rsssssX$12222>12221, qDGFFFF8 ",
" 6YYYYYYYYYY$XVVCCCCCCCCCCX@YYYYYYYYYYYY.1CCVCCCVVVVVh mYYYYYYz ",
" 6YYYYYYYYYY%XCCCCCCCCCCVVXOYYYYYYYYYYYY.1CCCCCCCCVCVz mYYYYYYk ",
" 6YYYYYYYYYY$oCCCCCCCCCCCN.+YYYYYYYYYYYY.1CCCCCCCCCCVz mYYYYYIk ",
" 5YYYYYYYYYY$.VVVVVCCCCVCC.OUYYYYYYYYYYYX1VVVVCCCCCCCz mYYYUYYk ",
" 6TUYYYYYYYY$XVVVVCCCCCVCCXOYYYUYYYYYTYYX1CCVVCCCCCCVz MYYYIYYk ",
" @1111*&----. ::::>&%&&&&& X11111&=----*.O>>::>&12221, 6VVVVVV4 ",
"                                                                ",
" xTTTT%1VCCCCCCCCCC&XYYYYYYYYYYYY OZCCCCCCCCCCm ZTTTTTTYTTTTTTM ",
" xYYYI%2CCCCCCCCCCC& YYYYYYYYYYYY OCCCCCCCCCCCm AYYYYYYYYYYYYYM ",
" xYYYY%2CCCCCCCCCCV&XYYYYYYYYYYYY OCCCCCCCCCCCm ATYYYYYYYYYYYYV ",
" cYYYY&1CCCCCCCCCCZ&XYYYYYYYYYYYY OVCCCCCCCCCCm AYYYYYYYYYYYYYM ",
" cTUYY&2CCVVCCCCVVV*.YYYYYYYYYYYT +VCCCCVVCCVVm SYYYYYYYYYYYYYV ",
" xYTYY%1CCCVCCCCVVC&.YYYYYYYYYYYT oVCCCCVVCCVVm SYYYYYYYYYYYYYM ",
" :6666o@11111111111o oooooooooooo  XXXX..X.XXXX >8888888888888> ",
"o..  X                                                          "
};
